<svg xmlns="http://www.w3.org/2000/svg" viewBox="0 0 181 64" fill="none">
  <defs>
    <style>
      .proxy-text { fill: #f5f5f5; }
      .proxy-text-light { fill: #0a0a0a; opacity: 0; }
      @media (prefers-color-scheme: light) {
        .proxy-text { opacity: 0; }
        .proxy-text-light { opacity: 1; }
      }
    </style>
  </defs>
  <path d="M32 8C18.7 8 8 18.7 8 32s10.7 24 24 24c8.8 0 16.5-4.6 20.9-11.5H40.1C36.9 49.6 30.4 52 24 52c-8.8 0-16-7.2-16-16s7.2-16 16-16c6.4 0 12.9 2.4 16.1 7.5h12.8C48.5 14.6 40.8 8 32 8z" fill="#0AD25A"/>
  <path d="M32 16c-4.4 0-8 3.6-8 8s3.6 8 8 8 8-3.6 8-8-3.6-8-8-8z" fill="#0AD25A"/>
  <text x="62" y="40" font-family="Poppins, -apple-system, BlinkMacSystemFont, Segoe UI, sans-serif" font-size="28" font-weight="700" fill="#0AD25A" letter-spacing="-0.5">styx</text>
  <text x="112" y="40" font-family="Poppins, -apple-system, BlinkMacSystemFont, Segoe UI, sans-serif" font-size="28" font-weight="700" letter-spacing="-0.5" class="proxy-text">proxy</text>
  <text x="112" y="40" font-family="Poppins, -apple-system, BlinkMacSystemFont, Segoe UI, sans-serif" font-size="28" font-weight="700" letter-spacing="-0.5" class="proxy-text-light">proxy</text>
</svg>